# xmcd
#
# Track frame offsets: 
#        150
#        31910
#        63745
#        97140
#        126440
#        162932
#        191960
#        222940
#        261612
#        290037
#
# Disc length: 4247 seconds
#
# Revision: 0
# Processed by: cddbd v1.5.2PL0 Copyright (c) Steve Scherf et al.
# Submitted via: ExactAudioCopy v0.99pb5
#
DISCID=ab10950a
DTITLE=Various Artist - Spiritual Life Music: New Birth
DYEAR=2003
DGENRE=House
TTITLE0=Osaze - Unspoken Word
TTITLE1=Slam Mode - Umri (Terra Arma)
TTITLE2=Mental Remedy - Dandos Gracias A Obatala
TTITLE3=Harmonics - Piece Of Mind
TTITLE4=Les Go - Dan Gna (Sacred Rhythm Vokal Journey)
TTITLE5=Daniel Moreno - Desireless
TTITLE6=Slam Mode - Apraketa (Jeff Mills' Snake Charmer)
TTITLE7=Nitin Sawhney - Moonrise (When Worlds Collide Version)
TTITLE8=3 Generations Walking - Midnight Bustling (Midnight Rockers)
TTITLE9=Pata Bahia - Alaude
EXTD=
EXTT0=
EXTT1=
EXTT2=
EXTT3=
EXTT4=
EXTT5=
EXTT6=
EXTT7=
EXTT8=
EXTT9=
PLAYORDER=
